<svg width="78" height="78" viewBox="0 0 78 78" fill="none" xmlns="http://www.w3.org/2000/svg">
    <g id="Booking Details">
        <g id="Booking Confirmed">
            <g id="Icon">
                <path id="Vector"
                    d="M34.45 44.85L27.3813 37.7812C26.7854 37.1854 26.0542 36.8875 25.1875 36.8875C24.3208 36.8875 23.5625 37.2125 22.9125 37.8625C22.3167 38.4583 22.0188 39.2167 22.0188 40.1375C22.0188 41.0583 22.3167 41.8167 22.9125 42.4125L32.175 51.675C32.7708 52.2708 33.5292 52.5687 34.45 52.5687C35.3708 52.5687 36.1292 52.2708 36.725 51.675L55.1688 33.2313C55.7646 32.6354 56.0625 31.9042 56.0625 31.0375C56.0625 30.1708 55.7375 29.4125 55.0875 28.7625C54.4917 28.1667 53.7333 27.8687 52.8125 27.8687C51.8917 27.8687 51.1333 28.1667 50.5375 28.7625L34.45 44.85ZM39 71.5C34.5042 71.5 30.2792 70.6463 26.325 68.939C22.3708 67.2338 18.9313 64.9188 16.0063 61.9938C13.0813 59.0688 10.7662 55.6292 9.061 51.675C7.35367 47.7208 6.5 43.4958 6.5 39C6.5 34.5042 7.35367 30.2792 9.061 26.325C10.7662 22.3708 13.0813 18.9313 16.0063 16.0063C18.9313 13.0813 22.3708 10.7651 26.325 9.05775C30.2792 7.35258 34.5042 6.5 39 6.5C43.4958 6.5 47.7208 7.35258 51.675 9.05775C55.6292 10.7651 59.0688 13.0813 61.9938 16.0063C64.9188 18.9313 67.2338 22.3708 68.939 26.325C70.6463 30.2792 71.5 34.5042 71.5 39C71.5 43.4958 70.6463 47.7208 68.939 51.675C67.2338 55.6292 64.9188 59.0688 61.9938 61.9938C59.0688 64.9188 55.6292 67.2338 51.675 68.939C47.7208 70.6463 43.4958 71.5 39 71.5Z"
                    fill="#22C55E" fill-rule="evenodd" clip-rule="evenodd" />
            </g>
        </g>
    </g>
</svg>