<svg width="24" height="24" viewBox="0 0 24 24" fill="none" xmlns="http://www.w3.org/2000/svg">
<g id="Book Appointment / Summary">
<g id="Booking Information">
<g id="Content">
<g id="Date &#38; Time">
<mask id="path-1-inside-1_0_1" fill="white">
<path d="M-8 -8H319V71H-8V-8Z"/>
</mask>
<path d="M319 71V70H-8V71V72H319V71Z" fill="#EDEDED" mask="url(#path-1-inside-1_0_1)"/>
<g id="Icon">
<rect x="-8" y="-8" width="40" height="40" rx="16" fill="#EAF2FF"/>
<g id="calendar-2">
<path id="Vector" d="M8 2V5" stroke="#247CFF" stroke-width="1.5" stroke-miterlimit="10" stroke-linecap="round" stroke-linejoin="round"/>
<path id="Vector_2" d="M16 2V5" stroke="#247CFF" stroke-width="1.5" stroke-miterlimit="10" stroke-linecap="round" stroke-linejoin="round"/>
<path id="Vector_3" d="M3.5 9.09009H20.5" stroke="#247CFF" stroke-width="1.5" stroke-miterlimit="10" stroke-linecap="round" stroke-linejoin="round"/>
<path id="Vector_4" d="M21 8.5V17C21 20 19.5 22 16 22H8C4.5 22 3 20 3 17V8.5C3 5.5 4.5 3.5 8 3.5H16C19.5 3.5 21 5.5 21 8.5Z" stroke="#247CFF" stroke-width="1.5" stroke-miterlimit="10" stroke-linecap="round" stroke-linejoin="round"/>
<path id="Vector_5" d="M11.9955 13.7H12.0045" stroke="#247CFF" stroke-width="2" stroke-linecap="round" stroke-linejoin="round"/>
<path id="Vector_6" d="M8.29431 13.7H8.30329" stroke="#247CFF" stroke-width="2" stroke-linecap="round" stroke-linejoin="round"/>
<path id="Vector_7" d="M8.29431 16.7H8.30329" stroke="#247CFF" stroke-width="2" stroke-linecap="round" stroke-linejoin="round"/>
</g>
</g>
</g>
</g>
</g>
</g>
</svg>
