<svg width="24" height="24" viewBox="0 0 24 24" fill="none" xmlns="http://www.w3.org/2000/svg">
<g id="Book Appointment / Summary">
<g id="Booking Information">
<g id="Content">
<g id="Appointment Tyoe">
<mask id="path-1-inside-1_0_1" fill="white">
<path d="M-8 -8H319V50H-8V-8Z"/>
</mask>
<path d="M319 50V49H-8V50V51H319V50Z" fill="#EDEDED" mask="url(#path-1-inside-1_0_1)"/>
<g id="Icon">
<rect x="-8" y="-8" width="40" height="40" rx="16" fill="#E9FAEF"/>
<g id="clipboard-text">
<g id="vuesax/linear/clipboard-text">
<g id="clipboard-text_2">
<path id="Vector" d="M8 12.2H15" stroke="#22C55E" stroke-width="1.5" stroke-miterlimit="10" stroke-linecap="round" stroke-linejoin="round"/>
<path id="Vector_2" d="M8 16.2H12.38" stroke="#22C55E" stroke-width="1.5" stroke-miterlimit="10" stroke-linecap="round" stroke-linejoin="round"/>
<path id="Vector_3" d="M10 6H14C16 6 16 5 16 4C16 2 15 2 14 2H10C9 2 8 2 8 4C8 6 9 6 10 6Z" stroke="#22C55E" stroke-width="1.5" stroke-miterlimit="10" stroke-linecap="round" stroke-linejoin="round"/>
<path id="Vector_4" d="M16 4.02002C19.33 4.20002 21 5.43002 21 10V16C21 20 20 22 15 22H9C4 22 3 20 3 16V10C3 5.44002 4.67 4.20002 8 4.02002" stroke="#22C55E" stroke-width="1.5" stroke-miterlimit="10" stroke-linecap="round" stroke-linejoin="round"/>
</g>
</g>
</g>
</g>
</g>
</g>
</g>
</g>
</svg>
