<svg width="24" height="24" viewBox="0 0 24 24" fill="none" xmlns="http://www.w3.org/2000/svg">
<rect width="24" height="24" fill="#1E1E1E"/>
<g id="Profile">
<rect width="375" height="812" transform="translate(-32 -529)" fill="#247CFF"/>
<g id="Content">
<g id="Personal Information">
<mask id="path-1-inside-1_0_1" fill="white">
<path d="M-8 -8H319V48H-8V-8Z"/>
</mask>
<path d="M319 48V47H-8V48V49H319V48Z" fill="#EDEDED" mask="url(#path-1-inside-1_0_1)"/>
<g id="Icon">
<rect x="-8" y="-8" width="40" height="40" rx="16" fill="#E9FAEF"/>
<g id="vuesax/linear/directbox-notif">
<g id="directbox-notif">
<path id="Vector" d="M7 12C3 12 3 13.79 3 16V17C3 19.76 3 22 8 22H16C20 22 21 19.76 21 17V16C21 13.79 21 12 17 12C16 12 15.72 12.21 15.2 12.6L14.18 13.68C13 14.94 11 14.94 9.81 13.68L8.8 12.6C8.28 12.21 8 12 7 12Z" stroke="#22C55E" stroke-width="1.5" stroke-miterlimit="10" stroke-linecap="round" stroke-linejoin="round"/>
<path id="Vector_2" d="M19 12V6C19 3.79 19 2 15 2H9C5 2 5 3.79 5 6V12" stroke="#22C55E" stroke-width="1.5" stroke-miterlimit="10" stroke-linecap="round" stroke-linejoin="round"/>
<path id="Vector_3" d="M10.55 9.23047H13.88" stroke="#22C55E" stroke-width="1.5" stroke-linecap="round" stroke-linejoin="round"/>
<path id="Vector_4" d="M9.72 6.23047H14.72" stroke="#22C55E" stroke-width="1.5" stroke-linecap="round" stroke-linejoin="round"/>
</g>
</g>
</g>
</g>
</g>
</g>
</svg>
