<svg width="16" height="16" viewBox="0 0 16 16" fill="none" xmlns="http://www.w3.org/2000/svg">
<rect width="16" height="16" fill="#1E1E1E"/>
<g id="Profile">
<rect width="375" height="812" transform="translate(-231.273 -233.272)" fill="#247CFF"/>
<g id="Change Profile Icon">
<rect x="-6.27272" y="-6.27246" width="28.5455" height="28.5455" rx="14.2727" fill="#F8F8F8"/>
<rect x="-6.27272" y="-6.27246" width="28.5455" height="28.5455" rx="14.2727" stroke="white" stroke-width="2"/>
<g id="Icon">
<g id="Group 33825">
<path id="Vector" d="M8.84218 3.62638L3.36885 9.41971C3.16218 9.63971 2.96218 10.073 2.92218 10.373L2.67552 12.533C2.58885 13.313 3.14885 13.8464 3.92218 13.713L6.06885 13.3464C6.36885 13.293 6.78885 13.073 6.99552 12.8464L12.4689 7.05305C13.4155 6.05305 13.8422 4.91305 12.3689 3.51971C10.9022 2.13971 9.78885 2.62638 8.84218 3.62638Z" stroke="#247CFF" stroke-miterlimit="10" stroke-linecap="round" stroke-linejoin="round"/>
<path id="Vector_2" d="M7.92967 4.59473C8.21634 6.43473 9.70967 7.84139 11.563 8.02806" stroke="#247CFF" stroke-miterlimit="10" stroke-linecap="round" stroke-linejoin="round"/>
</g>
</g>
</g>
</g>
</svg>
