<svg width="24" height="24" viewBox="0 0 24 24" fill="none" xmlns="http://www.w3.org/2000/svg">
<rect width="24" height="24" fill="#1E1E1E"/>
<g id="Setting Screen">
<rect width="375" height="812" transform="translate(-24 -324)" fill="white"/>
<g id="Frame 1000005784">
<g id="Frame 1000005786">
<mask id="path-1-inside-1_0_1" fill="white">
<path d="M0 -12H327V36H0V-12Z"/>
</mask>
<path d="M327 36V35H0V36V37H327V36Z" fill="#EDEDED" mask="url(#path-1-inside-1_0_1)"/>
<g id="Frame 1000005781">
<g id="language-square">
<g id="vuesax/linear/language-square">
<g id="language-square_2">
<g id="Group">
<path id="Vector" d="M16.99 8.95996H7.01001" stroke="#242424" stroke-width="1.5" stroke-linecap="round" stroke-linejoin="round"/>
<path id="Vector_2" d="M12 7.28027V8.96027" stroke="#242424" stroke-width="1.5" stroke-linecap="round" stroke-linejoin="round"/>
<path id="Vector_3" d="M14.5 8.94043C14.5 13.2404 11.14 16.7204 7 16.7204" stroke="#242424" stroke-width="1.5" stroke-linecap="round" stroke-linejoin="round"/>
<path id="Vector_4" d="M17 16.72C15.2 16.72 13.6 15.76 12.45 14.25" stroke="#242424" stroke-width="1.5" stroke-linecap="round" stroke-linejoin="round"/>
</g>
<path id="Vector_5" d="M9 22H15C20 22 22 20 22 15V9C22 4 20 2 15 2H9C4 2 2 4 2 9V15C2 20 4 22 9 22Z" stroke="#242424" stroke-width="1.5" stroke-linecap="round" stroke-linejoin="round"/>
</g>
</g>
</g>
</g>
</g>
</g>
</g>
</svg>
