<svg width="24" height="24" viewBox="0 0 24 24" fill="none" xmlns="http://www.w3.org/2000/svg">
<rect width="24" height="24" fill="#1E1E1E"/>
<g id="Setting Screen">
<rect width="375" height="812" transform="translate(-24 -264)" fill="white"/>
<g id="Frame 1000005784">
<g id="Frame 1000005785">
<mask id="path-1-inside-1_0_1" fill="white">
<path d="M0 -12H327V36H0V-12Z"/>
</mask>
<path d="M327 36V35H0V36V37H327V36Z" fill="#EDEDED" mask="url(#path-1-inside-1_0_1)"/>
<g id="Frame 1000005781">
<g id="lock">
<g id="vuesax/linear/lock">
<g id="lock_2">
<path id="Vector" d="M6 10V8C6 4.69 7 2 12 2C17 2 18 4.69 18 8V10" stroke="#242424" stroke-width="1.5" stroke-linecap="round" stroke-linejoin="round"/>
<path id="Vector_2" d="M12 18.5C13.3807 18.5 14.5 17.3807 14.5 16C14.5 14.6193 13.3807 13.5 12 13.5C10.6193 13.5 9.5 14.6193 9.5 16C9.5 17.3807 10.6193 18.5 12 18.5Z" stroke="#242424" stroke-width="1.5" stroke-linecap="round" stroke-linejoin="round"/>
<path id="Vector_3" d="M17 22H7C3 22 2 21 2 17V15C2 11 3 10 7 10H17C21 10 22 11 22 15V17C22 21 21 22 17 22Z" stroke="#242424" stroke-width="1.5" stroke-linecap="round" stroke-linejoin="round"/>
</g>
</g>
</g>
</g>
</g>
</g>
</g>
</svg>
