<svg width="17" height="20" viewBox="0 0 17 20" fill="none" xmlns="http://www.w3.org/2000/svg">
<path fill-rule="evenodd" clip-rule="evenodd" d="M8.67476 13.2174H8.32505C5.92166 13.2174 3.97358 11.2927 3.97358 8.92033V4.29706C3.97358 1.92373 5.92166 0 8.32505 0H8.67476C11.0781 0 13.0272 1.92373 13.0272 4.29706V8.92033C13.0272 11.2927 11.0781 13.2174 8.67476 13.2174ZM15.0626 8.78287C15.0626 8.25386 15.4966 7.82626 16.0313 7.82626C16.566 7.82626 17 8.25386 17 8.78287C17 13.0866 13.7006 16.6404 9.4692 17.1178V19.0434C9.4692 19.5714 9.03522 20 8.50048 20C7.96478 20 7.53177 19.5714 7.53177 19.0434V17.1178C3.29945 16.6404 0 13.0866 0 8.78287C0 8.25386 0.433985 7.82626 0.968716 7.82626C1.50345 7.82626 1.93743 8.25386 1.93743 8.78287C1.93743 12.3558 4.88136 15.2629 8.50048 15.2629C12.1186 15.2629 15.0626 12.3558 15.0626 8.78287Z" fill="white"/>
</svg>
