<svg width="40" height="40" viewBox="0 0 40 40" fill="none" xmlns="http://www.w3.org/2000/svg">
<g id="Book Appointment / Summary">
<g id="Payment Information">
<g id="Frame 1000005748">
<g id="Frame 1000005747">
<g id="paypal">
<rect width="40" height="40" rx="9.99998" fill="#F1F1F1"/>
<g id="PayPal">
<path id="Shape" d="M14.5098 33.9831L15.0297 30.6806L13.8716 30.6537H8.34119L12.1845 6.28449C12.1964 6.21093 12.2352 6.14233 12.2919 6.09362C12.3485 6.04491 12.4211 6.01807 12.4967 6.01807H21.8217C24.9174 6.01807 27.0538 6.66227 28.1692 7.93376C28.6921 8.53024 29.0252 9.15357 29.1862 9.83952C29.3552 10.5593 29.3582 11.4192 29.1932 12.468L29.1812 12.5446V13.2166L29.7041 13.5128C30.1445 13.7465 30.4945 14.0139 30.7629 14.3201C31.2103 14.8301 31.4996 15.4783 31.6218 16.2467C31.7481 17.0371 31.7063 17.9775 31.4996 19.0422C31.261 20.267 30.8752 21.3337 30.3543 22.2066C29.8751 23.0108 29.2647 23.6779 28.54 24.1948C27.8481 24.6859 27.0259 25.0587 26.0964 25.2973C25.1957 25.5319 24.1688 25.6502 23.0425 25.6502H22.3167C21.7978 25.6502 21.2938 25.8371 20.8981 26.1722C20.5014 26.5141 20.239 26.9814 20.1585 27.4924L20.1038 27.7896L19.1852 33.6103L19.1435 33.824C19.1325 33.8916 19.1136 33.9254 19.0858 33.9483C19.0609 33.9692 19.0252 33.9831 18.9904 33.9831H14.5098Z" fill="#253B80"/>
<path id="Shape_2" d="M30.1996 12.6221C30.1718 12.8 30.14 12.9819 30.1042 13.1688C28.8744 19.4826 24.6673 21.6637 19.294 21.6637H16.5581C15.901 21.6637 15.3472 22.1409 15.2449 22.7891L13.8441 31.6727L13.4475 34.1908C13.3809 34.6163 13.7089 35 14.1384 35H18.9908C19.5654 35 20.0535 34.5825 20.1439 34.0158L20.1917 33.7693L21.1053 27.9715L21.1639 27.6534C21.2534 27.0847 21.7425 26.6672 22.3171 26.6672H23.0428C27.7441 26.6672 31.4244 24.7585 32.5 19.2351C32.9494 16.9277 32.7168 15.001 31.5278 13.646C31.1679 13.2374 30.7215 12.8984 30.1996 12.6221Z" fill="#179BD7"/>
<path id="Shape_3" d="M28.9129 12.1091C28.725 12.0544 28.5311 12.0047 28.3323 11.96C28.1325 11.9163 27.9277 11.8775 27.7169 11.8437C26.9793 11.7244 26.171 11.6677 25.3052 11.6677H17.9963C17.8163 11.6677 17.6453 11.7085 17.4922 11.7821C17.1552 11.9441 16.9047 12.2632 16.8441 12.6539L15.2892 22.5018L15.2445 22.7891C15.3469 22.1409 15.9006 21.6637 16.5578 21.6637H19.2936C24.6669 21.6637 28.8741 19.4816 30.1038 13.1689C30.1406 12.982 30.1714 12.8 30.1993 12.6221C29.8881 12.4571 29.5511 12.3159 29.1882 12.1956C29.0988 12.1658 29.0063 12.137 28.9129 12.1091Z" fill="#222D65"/>
<path id="Shape_4" d="M17.4926 11.783C17.6467 11.7094 17.8167 11.6687 17.9966 11.6687H25.3055C26.1714 11.6687 26.9796 11.7253 27.7173 11.8446C27.928 11.8784 28.1328 11.9172 28.3326 11.9609C28.5315 12.0057 28.7253 12.0554 28.9132 12.1101C29.0066 12.1379 29.0991 12.1667 29.1896 12.1955C29.5524 12.3158 29.8894 12.458 30.2006 12.622C30.5664 10.2888 30.1976 8.70017 28.9361 7.26166C27.5453 5.678 25.0351 5 21.823 5H12.498C11.8419 5 11.2822 5.47718 11.1808 6.12635L7.29673 30.7461C7.22019 31.2332 7.59597 31.6726 8.08707 31.6726H13.8441L15.2896 22.5017L16.8444 12.6538C16.905 12.2631 17.1556 11.944 17.4926 11.783Z" fill="#253B80"/>
</g>
</g>
</g>
</g>
</g>
</g>
</svg>
