<svg width="26" height="30" viewBox="0 0 26 30" fill="none" xmlns="http://www.w3.org/2000/svg">
<path d="M7.22317 28.9826L7.7431 25.6801L6.58494 25.6532H1.05457L4.89789 1.28401C4.90982 1.21044 4.94859 1.14184 5.00526 1.09313C5.06192 1.04442 5.13449 1.01758 5.21005 1.01758H14.535C17.6308 1.01758 19.7672 1.66178 20.8826 2.93328C21.4055 3.52976 21.7385 4.15308 21.8996 4.83903C22.0686 5.55878 22.0716 6.41871 21.9065 7.46752L21.8946 7.54407V8.21611L22.4175 8.51236C22.8579 8.74598 23.2079 9.0134 23.4763 9.3196C23.9236 9.82959 24.2129 10.4778 24.3352 11.2462C24.4615 12.0366 24.4197 12.977 24.2129 14.0417C23.9743 15.2665 23.5886 16.3332 23.0677 17.2061C22.5885 18.0103 21.9781 18.6774 21.2534 19.1943C20.5615 19.6854 19.7393 20.0582 18.8098 20.2968C17.9091 20.5314 16.8822 20.6497 15.7558 20.6497H15.0301C14.5112 20.6497 14.0071 20.8366 13.6115 21.1717C13.2148 21.5137 12.9524 21.9809 12.8718 22.4919L12.8172 22.7891L11.8986 28.6098L11.8568 28.8235C11.8459 28.8911 11.827 28.9249 11.7992 28.9478C11.7743 28.9687 11.7385 28.9826 11.7037 28.9826H7.22317Z" fill="#253B80"/>
<path d="M22.9128 7.62207C22.885 7.80002 22.8532 7.98195 22.8174 8.16884C21.5876 14.4826 17.3805 16.6637 12.0072 16.6637H9.2713C8.61418 16.6637 8.06045 17.1409 7.95805 17.7891L6.55731 26.6727L6.16065 29.1908C6.09405 29.6163 6.42211 30 6.85158 30H11.7039C12.2786 30 12.7667 29.5825 12.8571 29.0158L12.9049 28.7693L13.8185 22.9715L13.8771 22.6534C13.9666 22.0847 14.4557 21.6672 15.0303 21.6672H15.756C20.4573 21.6672 24.1376 19.7585 25.2132 14.2351C25.6626 11.9277 25.43 10.001 24.241 8.64603C23.8811 8.23744 23.4347 7.89844 22.9128 7.62207Z" fill="#179BD7"/>
<path d="M21.6262 7.10936C21.4383 7.05469 21.2444 7.00498 21.0456 6.96024C20.8458 6.9165 20.641 6.87773 20.4302 6.84393C19.6926 6.72463 18.8844 6.66797 18.0185 6.66797H10.7096C10.5297 6.66797 10.3587 6.70873 10.2056 6.78229C9.86855 6.94434 9.61803 7.26346 9.55739 7.65415L8.00256 17.502L7.95782 17.7894C8.06022 17.1412 8.61395 16.664 9.27108 16.664H12.0069C17.3802 16.664 21.5874 14.4819 22.8172 8.16911C22.8539 7.98221 22.8848 7.80029 22.9126 7.62234C22.6014 7.45731 22.2644 7.31614 21.9016 7.19585C21.8121 7.16603 21.7196 7.1372 21.6262 7.10936Z" fill="#222D65"/>
<path d="M10.2058 6.78298C10.3599 6.70941 10.5299 6.66866 10.7098 6.66866H18.0187C18.8846 6.66866 19.6928 6.72532 20.4305 6.84462C20.6412 6.87842 20.846 6.91719 21.0458 6.96093C21.2446 7.00567 21.4385 7.05537 21.6264 7.11005C21.7198 7.13789 21.8123 7.16672 21.9028 7.19555C22.2656 7.31584 22.6026 7.458 22.9138 7.62203C23.2796 5.2888 22.9108 3.70017 21.6493 2.26166C20.2585 0.678 17.7483 0 14.5362 0H5.21124C4.55511 0 3.99542 0.477185 3.89401 1.12635L0.00993024 25.7461C-0.0666181 26.2332 0.309165 26.6726 0.800267 26.6726H6.5573L8.00277 17.5017L9.5576 7.65384C9.61824 7.26315 9.86876 6.94403 10.2058 6.78298Z" fill="#253B80"/>
</svg>
