<svg width="20" height="20" viewBox="0 0 20 20" fill="none" xmlns="http://www.w3.org/2000/svg">
<path d="M11.9667 11.8582C11.4096 12.3073 10.7156 12.5522 10 12.5522C9.28445 12.5522 8.59043 12.3073 8.03336 11.8582C7.86318 11.7167 7.64378 11.6487 7.42342 11.669C7.20307 11.6893 6.99981 11.7963 6.85836 11.9665C6.71691 12.1367 6.64886 12.3561 6.66917 12.5764C6.68949 12.7968 6.79651 13.0001 6.96669 13.1415C7.81781 13.852 8.89133 14.2412 10 14.2412C11.1087 14.2412 12.1822 13.852 13.0334 13.1415C13.2035 13.0001 13.3106 12.7968 13.3309 12.5764C13.3512 12.3561 13.2831 12.1367 13.1417 11.9665C13.0717 11.8822 12.9857 11.8126 12.8887 11.7615C12.7918 11.7105 12.6857 11.679 12.5766 11.669C12.3563 11.6487 12.1369 11.7167 11.9667 11.8582ZM7.50002 9.1665C7.66484 9.1665 7.82596 9.11763 7.963 9.02606C8.10004 8.93449 8.20685 8.80435 8.26992 8.65207C8.333 8.4998 8.3495 8.33225 8.31735 8.1706C8.28519 8.00894 8.20582 7.86046 8.08928 7.74392C7.97274 7.62737 7.82425 7.548 7.6626 7.51585C7.50095 7.4837 7.33339 7.5002 7.18112 7.56327C7.02885 7.62634 6.8987 7.73315 6.80713 7.8702C6.71556 8.00724 6.66669 8.16835 6.66669 8.33317C6.66669 8.55418 6.75449 8.76615 6.91077 8.92243C7.06705 9.07871 7.27901 9.1665 7.50002 9.1665ZM12.5 7.49984C12.3352 7.49984 12.1741 7.54871 12.037 7.64028C11.9 7.73185 11.7932 7.862 11.7301 8.01427C11.6671 8.16654 11.6505 8.3341 11.6827 8.49575C11.7149 8.6574 11.7942 8.80588 11.9108 8.92243C12.0273 9.03897 12.1758 9.11834 12.3374 9.15049C12.4991 9.18265 12.6667 9.16614 12.8189 9.10307C12.9712 9.04 13.1013 8.93319 13.1929 8.79615C13.2845 8.65911 13.3334 8.49799 13.3334 8.33317C13.3334 8.11216 13.2456 7.9002 13.0893 7.74392C12.933 7.58764 12.721 7.49984 12.5 7.49984ZM10 1.6665C8.35185 1.6665 6.74068 2.15525 5.37027 3.07092C3.99986 3.9866 2.93176 5.28809 2.30103 6.81081C1.6703 8.33353 1.50527 10.0091 1.82681 11.6256C2.14836 13.2421 2.94203 14.727 4.10747 15.8924C5.27291 17.0578 6.75776 17.8515 8.37427 18.173C9.99078 18.4946 11.6663 18.3296 13.1891 17.6988C14.7118 17.0681 16.0133 16 16.9289 14.6296C17.8446 13.2592 18.3334 11.648 18.3334 9.99984C18.3334 8.90549 18.1178 7.82186 17.699 6.81081C17.2802 5.79976 16.6664 4.8811 15.8926 4.10728C15.1188 3.33346 14.2001 2.71963 13.1891 2.30084C12.178 1.88205 11.0944 1.6665 10 1.6665ZM10 16.6665C8.68148 16.6665 7.39255 16.2755 6.29622 15.543C5.19989 14.8104 4.34541 13.7692 3.84083 12.5511C3.33624 11.3329 3.20422 9.99244 3.46146 8.69924C3.71869 7.40603 4.35363 6.21814 5.28598 5.28579C6.21833 4.35344 7.40622 3.7185 8.69942 3.46127C9.99263 3.20403 11.3331 3.33606 12.5512 3.84064C13.7694 4.34522 14.8106 5.19971 15.5432 6.29604C16.2757 7.39236 16.6667 8.6813 16.6667 9.99984C16.6667 11.7679 15.9643 13.4636 14.7141 14.7139C13.4638 15.9641 11.7681 16.6665 10 16.6665Z" fill="#9E9E9E"/>
</svg>
