<svg width="41" height="41" viewBox="0 0 41 41" fill="none" xmlns="http://www.w3.org/2000/svg">
<path d="M19.3659 3.97435C19.7548 3.18987 20.8783 3.18987 21.2671 3.97435L25.6777 12.8725C25.8321 13.184 26.1305 13.3999 26.4758 13.4499L36.3381 14.8767C37.2076 15.0025 37.5548 16.0664 36.9256 16.6771L29.7892 23.6033C29.5393 23.8458 29.4253 24.1951 29.4843 24.5375L31.169 34.3175C31.3175 35.1797 30.4086 35.8372 29.6309 35.4302L20.8098 30.8127C20.501 30.651 20.132 30.651 19.8232 30.8127L11.0021 35.4302C10.2244 35.8372 9.31548 35.1797 9.46401 34.3175L11.1487 24.5375C11.2077 24.1951 11.0937 23.8458 10.8438 23.6033L3.70739 16.6771C3.07823 16.0664 3.42541 15.0025 4.29489 14.8767L14.1572 13.4499C14.5025 13.3999 14.8009 13.184 14.9554 12.8725L19.3659 3.97435Z" fill="#E0E0E0"/>
</svg>
